<svg id="Warstwa_1" data-name="Warstwa 1" xmlns="http://www.w3.org/2000/svg" viewBox="0 0 1032.6 612.23"><defs><style>.cls-1{fill:#fff;}.cls-2{fill:#ed0000;}</style></defs><title>light</title><polygon class="cls-1" points="1032.6 392.23 992.6 392.23 959.86 435.69 927.13 392.23 887.13 392.23 939.86 462.23 887.13 532.23 927.13 532.23 959.86 488.78 992.6 532.23 1032.6 532.23 979.86 462.23 1032.6 392.23"/><rect class="cls-1" x="816.86" y="392.23" width="40" height="140"/><path class="cls-1" d="M547.21,392.23H506.88a50.15,50.15,0,0,0-50,50v40a50,50,0,0,0,50,50h40.33a50,50,0,0,0,50-50v-40A50,50,0,0,0,547.21,392.23Zm9.93,86a14,14,0,0,1-14,14H511a14,14,0,0,1-14-14v-32a14,14,0,0,1,14-14h32.13a14,14,0,0,1,14,14Z"/><rect class="cls-2" x="817.23" y="332.23" width="40" height="40"/><path class="cls-1" d="M427.23,332.23H306.86l.37-70h-40l-.37,70h-40v40h40v100a60,60,0,0,0,60,60H427.23v-40H326.86a20,20,0,0,1-20-20v-100H507.23v-40Z"/><path class="cls-1" d="M787.23,372.23v-40H666.86l.37-70h-40l-.37,70H547.23v40h79.63v100a60,60,0,0,0,60,60h100v-40h-100a20,20,0,0,1-20-20v-100Z"/><polygon class="cls-1" points="467.79 49.44 760.67 262.23 784.18 229.87 467.79 0 0 339.87 23.51 372.23 106.86 311.68 106.86 612.23 146.86 612.23 507.23 612.23 507.23 572.23 146.86 572.23 146.86 282.62 467.79 49.44"/></svg>