<svg xmlns="http://www.w3.org/2000/svg" xmlns:xlink="http://www.w3.org/1999/xlink" viewBox="0 0 449 282"><defs><style>.cls-1{fill:url(#Gradient_bez_nazwy_8);}.cls-2{fill:#646464;}.cls-3{fill:#f90000;}.cls-4{fill:#fd530d;}</style><linearGradient id="Gradient_bez_nazwy_8" x1="-457.33" y1="525.05" x2="-456.39" y2="524.09" gradientTransform="matrix(449, 0, 0, -255, 205355.89, 133892.11)" gradientUnits="userSpaceOnUse"><stop offset="0" stop-color="#323232"/><stop offset="1" stop-color="#3c3c3c"/></linearGradient></defs><title>Zasób 1</title><g id="Warstwa_2" data-name="Warstwa 2"><g id="Warstwa_1-2" data-name="Warstwa 1"><g id="Group_58" data-name="Group 58"><rect id="Rectangle_25" data-name="Rectangle 25" class="cls-1" width="449" height="255" rx="16"/><g id="Group_57" data-name="Group 57"><path id="Rectangle_26" data-name="Rectangle 26" class="cls-2" d="M40,32H409a8,8,0,0,1,8,8h0a8,8,0,0,1-8,8H40a8,8,0,0,1-8-8h0A8,8,0,0,1,40,32Z"/><path id="Rectangle_27" data-name="Rectangle 27" class="cls-2" d="M40,72H345a8,8,0,0,1,8,8h0a8,8,0,0,1-8,8H40a8,8,0,0,1-8-8h0A8,8,0,0,1,40,72Z"/><path id="Rectangle_28" data-name="Rectangle 28" class="cls-2" d="M40,112H281a8,8,0,0,1,8,8h0a8,8,0,0,1-8,8H40a8,8,0,0,1-8-8h0A8,8,0,0,1,40,112Z"/><path id="Rectangle_29" data-name="Rectangle 29" class="cls-2" d="M40,152H217a8,8,0,0,1,8,8h0a8,8,0,0,1-8,8H40a8,8,0,0,1-8-8h0A8,8,0,0,1,40,152Z"/></g><g id="Group_56" data-name="Group 56"><path id="Subtraction_3" data-name="Subtraction 3" class="cls-3" d="M393,282h0l-24-24-24,24V186h48Z"/><path id="certificate-solid" d="M407,175l8.62-8.44a4.47,4.47,0,0,0-2-7.57l-11.74-3,3.31-11.62a4.55,4.55,0,0,0-3.22-5.57,4.64,4.64,0,0,0-2.34,0L388,142.11l-3-11.75a4.49,4.49,0,0,0-5.5-3.2,4.45,4.45,0,0,0-2.06,1.2L369,137l-8.44-8.68a4.49,4.49,0,0,0-6.36-.06,4.43,4.43,0,0,0-1.2,2.06l-3,11.75-11.62-3.32a4.56,4.56,0,0,0-5.56,3.22,4.68,4.68,0,0,0,0,2.35L336.13,156l-11.74,3a4.46,4.46,0,0,0-2,7.56L331,175l-8.62,8.43a4.47,4.47,0,0,0,2,7.57l11.74,3-3.31,11.62a4.55,4.55,0,0,0,3.22,5.57,4.64,4.64,0,0,0,2.34,0L350,207.86l3,11.75a4.46,4.46,0,0,0,7.56,2L369,213l8.44,8.62a4.47,4.47,0,0,0,6.33.12,4.59,4.59,0,0,0,1.23-2.12l3-11.75,11.62,3.32a4.56,4.56,0,0,0,5.56-3.22,4.46,4.46,0,0,0,0-2.35L401.87,194l11.74-3a4.47,4.47,0,0,0,2-7.57L407,175Z"/><circle id="Ellipse_4" data-name="Ellipse 4" class="cls-4" cx="369" cy="175" r="28"/><circle id="Ellipse_5" data-name="Ellipse 5" class="cls-3" cx="369" cy="175" r="16"/></g></g></g></g></svg>